G04 #@! TF.FileFunction,Legend,Top*
%FSLAX46Y46*%
G04 Gerber Fmt 4.6, Leading zero omitted, Abs format (unit mm)*
G04 Created by KiCad (PCBNEW 4.0.0-rc2-stable) date Sat 14 Nov 2015 14:56:29 GMT*
%MOMM*%
G01*
G04 APERTURE LIST*
%ADD10C,0.100000*%
%ADD11C,0.150000*%
%ADD12C,0.381000*%
%ADD13C,0.285750*%
G04 APERTURE END LIST*
D10*
D11*
X168656000Y-115570000D02*
X162052000Y-115570000D01*
X168656000Y-123952000D02*
X162052000Y-123952000D01*
X168656000Y-123952000D02*
G75*
G03X168656000Y-115570000I-4191000J4191000D01*
G01*
X162052000Y-115570000D02*
G75*
G03X162052000Y-123952000I4191000J-4191000D01*
G01*
X139196000Y-108097000D02*
X142196000Y-108097000D01*
X142196000Y-110597000D02*
X139196000Y-110597000D01*
X133354000Y-112161000D02*
X136354000Y-112161000D01*
X136354000Y-114661000D02*
X133354000Y-114661000D01*
X138176000Y-122555000D02*
X138176000Y-111379000D01*
X138176000Y-111379000D02*
X142748000Y-111379000D01*
X142748000Y-111379000D02*
X142748000Y-122555000D01*
X142748000Y-122555000D02*
X138176000Y-122555000D01*
X153670000Y-88265000D02*
X153670000Y-123825000D01*
X153670000Y-123825000D02*
X143510000Y-123825000D01*
X143510000Y-123825000D02*
X143510000Y-88265000D01*
X143510000Y-88265000D02*
X153670000Y-88265000D01*
D12*
X149860000Y-88519000D02*
X149860000Y-89789000D01*
X149860000Y-89789000D02*
X147320000Y-89789000D01*
X147320000Y-89789000D02*
X147320000Y-88519000D01*
D11*
X128270000Y-123952000D02*
X134874000Y-123952000D01*
X128270000Y-115570000D02*
X134874000Y-115570000D01*
X128270000Y-115570000D02*
G75*
G03X128270000Y-123952000I4191000J-4191000D01*
G01*
X134874000Y-123952000D02*
G75*
G03X134874000Y-115570000I-4191000J4191000D01*
G01*
X136525000Y-109347000D02*
X136525000Y-102743000D01*
X128143000Y-109347000D02*
X128143000Y-102743000D01*
X128143000Y-109347000D02*
G75*
G03X136525000Y-109347000I4191000J4191000D01*
G01*
X136525000Y-102743000D02*
G75*
G03X128143000Y-102743000I-4191000J-4191000D01*
G01*
X140843000Y-94107000D02*
X140843000Y-87503000D01*
X132461000Y-94107000D02*
X132461000Y-87503000D01*
X132461000Y-94107000D02*
G75*
G03X140843000Y-94107000I4191000J4191000D01*
G01*
X140843000Y-87503000D02*
G75*
G03X132461000Y-87503000I-4191000J-4191000D01*
G01*
X156083000Y-87503000D02*
X156083000Y-94107000D01*
X164465000Y-87503000D02*
X164465000Y-94107000D01*
X164465000Y-87503000D02*
G75*
G03X156083000Y-87503000I-4191000J-4191000D01*
G01*
X156083000Y-94107000D02*
G75*
G03X164465000Y-94107000I4191000J4191000D01*
G01*
X160655000Y-102743000D02*
X160655000Y-109347000D01*
X169037000Y-102743000D02*
X169037000Y-109347000D01*
X169037000Y-102743000D02*
G75*
G03X160655000Y-102743000I-4191000J-4191000D01*
G01*
X160655000Y-109347000D02*
G75*
G03X169037000Y-109347000I4191000J4191000D01*
G01*
X142494000Y-86995000D02*
X142494000Y-80899000D01*
X142494000Y-80899000D02*
X154686000Y-80899000D01*
X154686000Y-80899000D02*
X154686000Y-86995000D01*
X154686000Y-86995000D02*
X142494000Y-86995000D01*
X149352000Y-80899000D02*
X149352000Y-80645000D01*
X149352000Y-80645000D02*
X147828000Y-80645000D01*
X147828000Y-80645000D02*
X147828000Y-80899000D01*
X139192000Y-98933000D02*
X139192000Y-101854000D01*
X140716000Y-98933000D02*
X140716000Y-101854000D01*
X140716000Y-101854000D02*
X139192000Y-101854000D01*
X139192000Y-98933000D02*
X140716000Y-98933000D01*
X139192000Y-97409000D02*
X138176000Y-97409000D01*
X138176000Y-97409000D02*
X138176000Y-103505000D01*
X138176000Y-103505000D02*
X139192000Y-103505000D01*
X141732000Y-97409000D02*
X140716000Y-97409000D01*
X141732000Y-97409000D02*
X141732000Y-103505000D01*
X141732000Y-103505000D02*
X140716000Y-103505000D01*
X162377381Y-120570524D02*
X162329762Y-120665762D01*
X162282143Y-120713381D01*
X162186905Y-120761000D01*
X161901190Y-120761000D01*
X161805952Y-120713381D01*
X161758333Y-120665762D01*
X161710714Y-120570524D01*
X161710714Y-120427666D01*
X161758333Y-120332428D01*
X161805952Y-120284809D01*
X161901190Y-120237190D01*
X162186905Y-120237190D01*
X162282143Y-120284809D01*
X162329762Y-120332428D01*
X162377381Y-120427666D01*
X162377381Y-120570524D01*
X161710714Y-119380047D02*
X162377381Y-119380047D01*
X161710714Y-119808619D02*
X162234524Y-119808619D01*
X162329762Y-119761000D01*
X162377381Y-119665762D01*
X162377381Y-119522904D01*
X162329762Y-119427666D01*
X162282143Y-119380047D01*
X161710714Y-119046714D02*
X161710714Y-118665762D01*
X161377381Y-118903857D02*
X162234524Y-118903857D01*
X162329762Y-118856238D01*
X162377381Y-118761000D01*
X162377381Y-118665762D01*
X169362381Y-120213381D02*
X168695714Y-120213381D01*
X168362381Y-120213381D02*
X168410000Y-120261000D01*
X168457619Y-120213381D01*
X168410000Y-120165762D01*
X168362381Y-120213381D01*
X168457619Y-120213381D01*
X168695714Y-119737191D02*
X169362381Y-119737191D01*
X168790952Y-119737191D02*
X168743333Y-119689572D01*
X168695714Y-119594334D01*
X168695714Y-119451476D01*
X168743333Y-119356238D01*
X168838571Y-119308619D01*
X169362381Y-119308619D01*
X141063624Y-107354643D02*
X141016005Y-107402262D01*
X140873148Y-107449881D01*
X140777910Y-107449881D01*
X140635052Y-107402262D01*
X140539814Y-107307024D01*
X140492195Y-107211786D01*
X140444576Y-107021310D01*
X140444576Y-106878452D01*
X140492195Y-106687976D01*
X140539814Y-106592738D01*
X140635052Y-106497500D01*
X140777910Y-106449881D01*
X140873148Y-106449881D01*
X141016005Y-106497500D01*
X141063624Y-106545119D01*
X136707524Y-116181143D02*
X136659905Y-116228762D01*
X136517048Y-116276381D01*
X136421810Y-116276381D01*
X136278952Y-116228762D01*
X136183714Y-116133524D01*
X136136095Y-116038286D01*
X136088476Y-115847810D01*
X136088476Y-115704952D01*
X136136095Y-115514476D01*
X136183714Y-115419238D01*
X136278952Y-115324000D01*
X136421810Y-115276381D01*
X136517048Y-115276381D01*
X136659905Y-115324000D01*
X136707524Y-115371619D01*
X151432380Y-115641381D02*
X151432380Y-114641381D01*
X151813333Y-114641381D01*
X151908571Y-114689000D01*
X151956190Y-114736619D01*
X152003809Y-114831857D01*
X152003809Y-114974714D01*
X151956190Y-115069952D01*
X151908571Y-115117571D01*
X151813333Y-115165190D01*
X151432380Y-115165190D01*
X152575237Y-115641381D02*
X152479999Y-115593762D01*
X152432380Y-115546143D01*
X152384761Y-115450905D01*
X152384761Y-115165190D01*
X152432380Y-115069952D01*
X152479999Y-115022333D01*
X152575237Y-114974714D01*
X152718095Y-114974714D01*
X152813333Y-115022333D01*
X152860952Y-115069952D01*
X152908571Y-115165190D01*
X152908571Y-115450905D01*
X152860952Y-115546143D01*
X152813333Y-115593762D01*
X152718095Y-115641381D01*
X152575237Y-115641381D01*
X153241904Y-114974714D02*
X153432380Y-115641381D01*
X153622857Y-115165190D01*
X153813333Y-115641381D01*
X154003809Y-114974714D01*
X154765714Y-115593762D02*
X154670476Y-115641381D01*
X154479999Y-115641381D01*
X154384761Y-115593762D01*
X154337142Y-115498524D01*
X154337142Y-115117571D01*
X154384761Y-115022333D01*
X154479999Y-114974714D01*
X154670476Y-114974714D01*
X154765714Y-115022333D01*
X154813333Y-115117571D01*
X154813333Y-115212810D01*
X154337142Y-115308048D01*
X155241904Y-115641381D02*
X155241904Y-114974714D01*
X155241904Y-115165190D02*
X155289523Y-115069952D01*
X155337142Y-115022333D01*
X155432380Y-114974714D01*
X155527619Y-114974714D01*
X155622857Y-115736619D02*
X156384762Y-115736619D01*
X157051429Y-115593762D02*
X156956191Y-115641381D01*
X156765714Y-115641381D01*
X156670476Y-115593762D01*
X156622857Y-115546143D01*
X156575238Y-115450905D01*
X156575238Y-115165190D01*
X156622857Y-115069952D01*
X156670476Y-115022333D01*
X156765714Y-114974714D01*
X156956191Y-114974714D01*
X157051429Y-115022333D01*
X157622857Y-115641381D02*
X157527619Y-115593762D01*
X157480000Y-115546143D01*
X157432381Y-115450905D01*
X157432381Y-115165190D01*
X157480000Y-115069952D01*
X157527619Y-115022333D01*
X157622857Y-114974714D01*
X157765715Y-114974714D01*
X157860953Y-115022333D01*
X157908572Y-115069952D01*
X157956191Y-115165190D01*
X157956191Y-115450905D01*
X157908572Y-115546143D01*
X157860953Y-115593762D01*
X157765715Y-115641381D01*
X157622857Y-115641381D01*
X158384762Y-114974714D02*
X158384762Y-115641381D01*
X158384762Y-115069952D02*
X158432381Y-115022333D01*
X158527619Y-114974714D01*
X158670477Y-114974714D01*
X158765715Y-115022333D01*
X158813334Y-115117571D01*
X158813334Y-115641381D01*
X159289524Y-114974714D02*
X159289524Y-115641381D01*
X159289524Y-115069952D02*
X159337143Y-115022333D01*
X159432381Y-114974714D01*
X159575239Y-114974714D01*
X159670477Y-115022333D01*
X159718096Y-115117571D01*
X159718096Y-115641381D01*
X160575239Y-115593762D02*
X160480001Y-115641381D01*
X160289524Y-115641381D01*
X160194286Y-115593762D01*
X160146667Y-115498524D01*
X160146667Y-115117571D01*
X160194286Y-115022333D01*
X160289524Y-114974714D01*
X160480001Y-114974714D01*
X160575239Y-115022333D01*
X160622858Y-115117571D01*
X160622858Y-115212810D01*
X160146667Y-115308048D01*
X161480001Y-115593762D02*
X161384763Y-115641381D01*
X161194286Y-115641381D01*
X161099048Y-115593762D01*
X161051429Y-115546143D01*
X161003810Y-115450905D01*
X161003810Y-115165190D01*
X161051429Y-115069952D01*
X161099048Y-115022333D01*
X161194286Y-114974714D01*
X161384763Y-114974714D01*
X161480001Y-115022333D01*
X161765715Y-114974714D02*
X162146667Y-114974714D01*
X161908572Y-114641381D02*
X161908572Y-115498524D01*
X161956191Y-115593762D01*
X162051429Y-115641381D01*
X162146667Y-115641381D01*
X162622858Y-115641381D02*
X162527620Y-115593762D01*
X162480001Y-115546143D01*
X162432382Y-115450905D01*
X162432382Y-115165190D01*
X162480001Y-115069952D01*
X162527620Y-115022333D01*
X162622858Y-114974714D01*
X162765716Y-114974714D01*
X162860954Y-115022333D01*
X162908573Y-115069952D01*
X162956192Y-115165190D01*
X162956192Y-115450905D01*
X162908573Y-115546143D01*
X162860954Y-115593762D01*
X162765716Y-115641381D01*
X162622858Y-115641381D01*
X163384763Y-115641381D02*
X163384763Y-114974714D01*
X163384763Y-115165190D02*
X163432382Y-115069952D01*
X163480001Y-115022333D01*
X163575239Y-114974714D01*
X163670478Y-114974714D01*
D13*
X148844000Y-119008071D02*
X148844000Y-118463785D01*
X149279429Y-119116928D02*
X147755429Y-118735928D01*
X149279429Y-118354928D01*
X147755429Y-118137214D02*
X147755429Y-117484071D01*
X149279429Y-117810642D02*
X147755429Y-117810642D01*
X149279429Y-117103071D02*
X147755429Y-117103071D01*
X148844000Y-116722071D01*
X147755429Y-116341071D01*
X149279429Y-116341071D01*
X148481143Y-115796785D02*
X148481143Y-115415785D01*
X149279429Y-115252499D02*
X149279429Y-115796785D01*
X147755429Y-115796785D01*
X147755429Y-115252499D01*
X147828000Y-114163928D02*
X147755429Y-114272785D01*
X147755429Y-114436071D01*
X147828000Y-114599356D01*
X147973143Y-114708214D01*
X148118286Y-114762642D01*
X148408571Y-114817071D01*
X148626286Y-114817071D01*
X148916571Y-114762642D01*
X149061714Y-114708214D01*
X149206857Y-114599356D01*
X149279429Y-114436071D01*
X149279429Y-114327214D01*
X149206857Y-114163928D01*
X149134286Y-114109499D01*
X148626286Y-114109499D01*
X148626286Y-114327214D01*
X148844000Y-113674071D02*
X148844000Y-113129785D01*
X149279429Y-113782928D02*
X147755429Y-113401928D01*
X149279429Y-113020928D01*
X147755429Y-112748785D02*
X147755429Y-112041214D01*
X148336000Y-112422214D01*
X148336000Y-112258928D01*
X148408571Y-112150071D01*
X148481143Y-112095642D01*
X148626286Y-112041214D01*
X148989143Y-112041214D01*
X149134286Y-112095642D01*
X149206857Y-112150071D01*
X149279429Y-112258928D01*
X149279429Y-112585500D01*
X149206857Y-112694357D01*
X149134286Y-112748785D01*
X147900571Y-111605786D02*
X147828000Y-111551357D01*
X147755429Y-111442500D01*
X147755429Y-111170357D01*
X147828000Y-111061500D01*
X147900571Y-111007071D01*
X148045714Y-110952643D01*
X148190857Y-110952643D01*
X148408571Y-111007071D01*
X149279429Y-111660214D01*
X149279429Y-110952643D01*
X148408571Y-110299500D02*
X148336000Y-110408358D01*
X148263429Y-110462786D01*
X148118286Y-110517215D01*
X148045714Y-110517215D01*
X147900571Y-110462786D01*
X147828000Y-110408358D01*
X147755429Y-110299500D01*
X147755429Y-110081786D01*
X147828000Y-109972929D01*
X147900571Y-109918500D01*
X148045714Y-109864072D01*
X148118286Y-109864072D01*
X148263429Y-109918500D01*
X148336000Y-109972929D01*
X148408571Y-110081786D01*
X148408571Y-110299500D01*
X148481143Y-110408358D01*
X148553714Y-110462786D01*
X148698857Y-110517215D01*
X148989143Y-110517215D01*
X149134286Y-110462786D01*
X149206857Y-110408358D01*
X149279429Y-110299500D01*
X149279429Y-110081786D01*
X149206857Y-109972929D01*
X149134286Y-109918500D01*
X148989143Y-109864072D01*
X148698857Y-109864072D01*
X148553714Y-109918500D01*
X148481143Y-109972929D01*
X148408571Y-110081786D01*
X148698857Y-109374215D02*
X148698857Y-108503358D01*
X149279429Y-107959072D02*
X147755429Y-107959072D01*
X147755429Y-107523644D01*
X147828000Y-107414786D01*
X147900571Y-107360358D01*
X148045714Y-107305929D01*
X148263429Y-107305929D01*
X148408571Y-107360358D01*
X148481143Y-107414786D01*
X148553714Y-107523644D01*
X148553714Y-107959072D01*
D11*
X135453381Y-120570524D02*
X135405762Y-120665762D01*
X135358143Y-120713381D01*
X135262905Y-120761000D01*
X134977190Y-120761000D01*
X134881952Y-120713381D01*
X134834333Y-120665762D01*
X134786714Y-120570524D01*
X134786714Y-120427666D01*
X134834333Y-120332428D01*
X134881952Y-120284809D01*
X134977190Y-120237190D01*
X135262905Y-120237190D01*
X135358143Y-120284809D01*
X135405762Y-120332428D01*
X135453381Y-120427666D01*
X135453381Y-120570524D01*
X134786714Y-119380047D02*
X135453381Y-119380047D01*
X134786714Y-119808619D02*
X135310524Y-119808619D01*
X135405762Y-119761000D01*
X135453381Y-119665762D01*
X135453381Y-119522904D01*
X135405762Y-119427666D01*
X135358143Y-119380047D01*
X134786714Y-119046714D02*
X134786714Y-118665762D01*
X134453381Y-118903857D02*
X135310524Y-118903857D01*
X135405762Y-118856238D01*
X135453381Y-118761000D01*
X135453381Y-118665762D01*
X128468381Y-120213381D02*
X127801714Y-120213381D01*
X127468381Y-120213381D02*
X127516000Y-120261000D01*
X127563619Y-120213381D01*
X127516000Y-120165762D01*
X127468381Y-120213381D01*
X127563619Y-120213381D01*
X127801714Y-119737191D02*
X128468381Y-119737191D01*
X127896952Y-119737191D02*
X127849333Y-119689572D01*
X127801714Y-119594334D01*
X127801714Y-119451476D01*
X127849333Y-119356238D01*
X127944571Y-119308619D01*
X128468381Y-119308619D01*
X131524476Y-103068381D02*
X131429238Y-103020762D01*
X131381619Y-102973143D01*
X131334000Y-102877905D01*
X131334000Y-102592190D01*
X131381619Y-102496952D01*
X131429238Y-102449333D01*
X131524476Y-102401714D01*
X131667334Y-102401714D01*
X131762572Y-102449333D01*
X131810191Y-102496952D01*
X131857810Y-102592190D01*
X131857810Y-102877905D01*
X131810191Y-102973143D01*
X131762572Y-103020762D01*
X131667334Y-103068381D01*
X131524476Y-103068381D01*
X132714953Y-102401714D02*
X132714953Y-103068381D01*
X132286381Y-102401714D02*
X132286381Y-102925524D01*
X132334000Y-103020762D01*
X132429238Y-103068381D01*
X132572096Y-103068381D01*
X132667334Y-103020762D01*
X132714953Y-102973143D01*
X133048286Y-102401714D02*
X133429238Y-102401714D01*
X133191143Y-102068381D02*
X133191143Y-102925524D01*
X133238762Y-103020762D01*
X133334000Y-103068381D01*
X133429238Y-103068381D01*
X135842476Y-87828381D02*
X135747238Y-87780762D01*
X135699619Y-87733143D01*
X135652000Y-87637905D01*
X135652000Y-87352190D01*
X135699619Y-87256952D01*
X135747238Y-87209333D01*
X135842476Y-87161714D01*
X135985334Y-87161714D01*
X136080572Y-87209333D01*
X136128191Y-87256952D01*
X136175810Y-87352190D01*
X136175810Y-87637905D01*
X136128191Y-87733143D01*
X136080572Y-87780762D01*
X135985334Y-87828381D01*
X135842476Y-87828381D01*
X137032953Y-87161714D02*
X137032953Y-87828381D01*
X136604381Y-87161714D02*
X136604381Y-87685524D01*
X136652000Y-87780762D01*
X136747238Y-87828381D01*
X136890096Y-87828381D01*
X136985334Y-87780762D01*
X137032953Y-87733143D01*
X137366286Y-87161714D02*
X137747238Y-87161714D01*
X137509143Y-86828381D02*
X137509143Y-87685524D01*
X137556762Y-87780762D01*
X137652000Y-87828381D01*
X137747238Y-87828381D01*
X159821619Y-87701381D02*
X159821619Y-87034714D01*
X159821619Y-86701381D02*
X159774000Y-86749000D01*
X159821619Y-86796619D01*
X159869238Y-86749000D01*
X159821619Y-86701381D01*
X159821619Y-86796619D01*
X160297809Y-87034714D02*
X160297809Y-87701381D01*
X160297809Y-87129952D02*
X160345428Y-87082333D01*
X160440666Y-87034714D01*
X160583524Y-87034714D01*
X160678762Y-87082333D01*
X160726381Y-87177571D01*
X160726381Y-87701381D01*
X164393619Y-102941381D02*
X164393619Y-102274714D01*
X164393619Y-101941381D02*
X164346000Y-101989000D01*
X164393619Y-102036619D01*
X164441238Y-101989000D01*
X164393619Y-101941381D01*
X164393619Y-102036619D01*
X164869809Y-102274714D02*
X164869809Y-102941381D01*
X164869809Y-102369952D02*
X164917428Y-102322333D01*
X165012666Y-102274714D01*
X165155524Y-102274714D01*
X165250762Y-102322333D01*
X165298381Y-102417571D01*
X165298381Y-102941381D01*
M02*
