M48
METRIC,TZ
T1C0.600
T2C0.800
T3C0.800
T4C0.813
T5C1.000
T6C1.100
T7C1.999
%
G90
G05
T1
X140462Y-114427
X140462Y-119507
T2
X129794Y-104775
X129794Y-107315
X130302Y-117221
X130302Y-119761
X130302Y-122301
X132334Y-104775
X132334Y-107315
X132842Y-117221
X132842Y-119761
X132842Y-122301
X133604Y-113411
X134112Y-89535
X134112Y-92075
X134874Y-104775
X134874Y-107315
X136652Y-89535
X136652Y-92075
X139192Y-89535
X139192Y-92075
X139446Y-109347
X157734Y-89535
X157734Y-92075
X160274Y-89535
X160274Y-92075
X162306Y-104775
X162306Y-107315
X162814Y-89535
X162814Y-92075
X164084Y-117221
X164084Y-119761
X164084Y-122301
X164846Y-104775
X164846Y-107315
X166624Y-117221
X166624Y-119761
X166624Y-122301
X167386Y-104775
X167386Y-107315
T3
X136104Y-113411
X141946Y-109347
T4
X144780Y-89535
X144780Y-92075
X144780Y-94615
X144780Y-97155
X144780Y-99695
X144780Y-102235
X144780Y-104775
X144780Y-107315
X144780Y-109855
X144780Y-112395
X144780Y-114935
X144780Y-117475
X144780Y-120015
X144780Y-122555
X152400Y-89535
X152400Y-92075
X152400Y-94615
X152400Y-97155
X152400Y-99695
X152400Y-102235
X152400Y-104775
X152400Y-107315
X152400Y-109855
X152400Y-112395
X152400Y-114935
X152400Y-117475
X152400Y-120015
X152400Y-122555
T5
X146050Y-82677
X146050Y-85217
X148590Y-82677
X148590Y-85217
X151130Y-82677
X151130Y-85217
X155448Y-117475
X157988Y-117475
T6
X139954Y-97155
X139954Y-103759
T7
X124460Y-122301
X148463Y-76962
X172466Y-122301
T0
M30
